<?xml version="1.0" encoding="UTF-8"?>
<svg id="Layer_2" data-name="Layer 2" xmlns="http://www.w3.org/2000/svg" viewBox="0 0 1594.83 164.51">
  <defs>
    <style>
      .cls-1 {
        fill: #fff;
      }
    </style>
  </defs>
  <g id="Layer_1-2" data-name="Layer 1">
    <g>
      <g>
        <path class="cls-1" d="M78.7,59.46c16.05-17.51,34.56-31.43,54.51-41.74C119.21,6.63,101.51,0,82.25,0c-22.77,0-43.37,9.26-58.26,24.2h33.23l20.18,28.05c-1.91,1.92-3.8,3.8-5.59,5.79-4.53,4.95-8.72,10.12-12.7,15.44L23.82,24.38C9.09,39.24,0,59.68,0,82.25c0,27.1,13.11,51.13,33.33,66.11,6.67-32.11,21.48-62.84,45.37-88.91Z"/>
        <path class="cls-1" d="M91.03,71.19l49.61,68.99c14.75-14.87,23.86-35.33,23.86-57.92,0-20.87-7.78-39.91-20.6-54.41-18.35,10.99-36.02,25.24-52.88,43.35Z"/>
        <path class="cls-1" d="M107.21,140.32s-24.08-33.46-33.76-46.92c-12.98,18.64-23.18,39.31-30.06,61.36,11.57,6.22,24.8,9.76,38.86,9.76,22.76,0,43.36-9.25,58.25-24.19h-33.29Z"/>
      </g>
      <g>
        <g>
          <path class="cls-1" d="M218.94,138.87c-1.25-1.03-1.87-2.57-1.87-4.62V30.43c0-2.16.62-3.76,1.87-4.79,1.24-1.03,3.41-1.54,6.49-1.54h10.11c2.05,0,3.66.23,4.84.68,1.17.46,2.34,1.37,3.52,2.74l72.55,78.33V30.43c0-2.16.62-3.76,1.87-4.79,1.24-1.03,3.33-1.54,6.27-1.54h11.65c2.93,0,5.06.51,6.37,1.54,1.32,1.03,1.98,2.62,1.98,4.79v103.82c0,2.05-.62,3.59-1.87,4.62-1.25,1.03-3.41,1.54-6.48,1.54h-10.33c-2.05,0-3.59-.2-4.62-.6-1.03-.4-2.2-1.28-3.52-2.65l-72.55-78.16v75.25c0,2.05-.63,3.59-1.87,4.62-1.25,1.03-3.41,1.54-6.49,1.54h-11.65c-2.93,0-5.02-.51-6.27-1.54Z"/>
          <path class="cls-1" d="M364.19,138.87c-1.25-1.03-1.87-2.57-1.87-4.62V30.43c0-2.16.62-3.76,1.87-4.79,1.24-1.03,3.33-1.54,6.27-1.54h91.46c2.93,0,4.95.46,6.05,1.37,1.1.91,1.65,2.45,1.65,4.62v4.62c0,2.17-.55,3.74-1.65,4.7-1.1.97-3.12,1.45-6.05,1.45h-71.46v33.18h51.89c2.93,0,4.98.46,6.15,1.37,1.17.91,1.76,2.45,1.76,4.62v4.28c0,2.17-.59,3.74-1.76,4.7-1.17.97-3.22,1.45-6.15,1.45h-51.89v33.35h71.24c2.93,0,4.98.49,6.16,1.45,1.17.97,1.76,2.54,1.76,4.7v4.62c0,2.05-.59,3.54-1.76,4.45-1.18.91-3.23,1.37-6.16,1.37h-91.24c-2.93,0-5.02-.51-6.27-1.54Z"/>
          <path class="cls-1" d="M484.48,139.72c-.66-.45-.99-1.03-.99-1.71s.36-1.48,1.1-2.39l52.99-54.73-50.13-51.99c-.88-.91-1.32-1.77-1.32-2.57,0-.68.29-1.22.88-1.62.58-.4,1.46-.6,2.64-.6h20.45c1.61,0,2.78.14,3.52.43.73.29,1.46.83,2.2,1.62l37.38,38.48,37.38-38.48c.73-.8,1.46-1.34,2.2-1.62.73-.28,1.9-.43,3.52-.43h20.67c1.02,0,1.83.2,2.42.6.58.4.88.94.88,1.62,0,.8-.44,1.65-1.32,2.57l-50.13,51.99,52.99,54.73c.73.91,1.1,1.71,1.1,2.39s-.33,1.26-.99,1.71c-.66.46-1.5.68-2.53.68h-20.45c-1.47,0-2.57-.11-3.3-.34-.74-.23-1.47-.74-2.2-1.54l-40.24-41.39-40.01,41.39c-.74.8-1.47,1.31-2.2,1.54-.74.23-1.83.34-3.3.34h-20.67c-1.03,0-1.87-.23-2.53-.68Z"/>
          <path class="cls-1" d="M683.78,138.87c-1.32-1.03-1.98-2.57-1.98-4.62V40.87h-38.48c-2.93,0-4.95-.45-6.05-1.37-1.1-.91-1.65-2.45-1.65-4.62v-4.62c0-2.16.55-3.73,1.65-4.7,1.1-.97,3.11-1.45,6.05-1.45h105.09c2.93,0,4.98.49,6.16,1.45,1.17.97,1.76,2.54,1.76,4.7v4.62c0,2.17-.59,3.71-1.76,4.62-1.17.91-3.23,1.37-6.16,1.37h-38.48v93.38c0,2.05-.63,3.59-1.87,4.62-1.25,1.03-3.41,1.54-6.49,1.54h-11.43c-2.93,0-5.06-.51-6.38-1.54Z"/>
        </g>
        <g>
          <path class="cls-1" d="M885.33,33.99c-8.67-6.54-21.5-9.85-38.12-9.85h-63.71c-5.11,0-6.19,2.49-6.19,4.58v107.06c0,2.09,1.07,4.59,6.19,4.59h1.91c5.12,0,6.19-2.49,6.19-4.59v-37.29h55.37c16.79,0,29.69-3.31,38.36-9.85,8.74-6.58,13.17-15.78,13.17-27.33s-4.43-20.74-13.17-27.33ZM884.69,61.32c0,9.19-2.96,16.13-8.8,20.64-5.89,4.55-15.22,6.86-27.73,6.86h-56.57v-55h56.57c12.5,0,21.83,2.31,27.73,6.86,5.84,4.51,8.8,11.46,8.8,20.64Z"/>
          <path class="cls-1" d="M1035.5,28.75c-11.8-4.74-26.1-7.14-42.5-7.14s-30.7,2.4-42.5,7.14c-11.84,4.76-21.02,11.77-27.28,20.86-6.26,9.08-9.43,20.07-9.43,32.65s3.17,23.57,9.43,32.65c6.26,9.08,15.43,16.1,27.28,20.86,11.8,4.74,26.1,7.14,42.5,7.14s30.69-2.4,42.5-7.14c11.85-4.76,21.03-11.78,27.28-20.86,6.26-9.08,9.43-20.06,9.43-32.65s-3.17-23.57-9.43-32.65c-6.26-9.08-15.44-16.1-27.28-20.85ZM1058.4,82.26c0,16.58-5.77,29.43-17.15,38.2-11.43,8.81-27.67,13.28-48.25,13.28s-36.82-4.47-48.25-13.28c-11.38-8.77-17.15-21.62-17.15-38.2s5.77-29.43,17.15-38.2c11.43-8.81,27.66-13.28,48.25-13.28s36.82,4.47,48.25,13.28c11.38,8.77,17.15,21.62,17.15,38.2Z"/>
          <path class="cls-1" d="M1260.5,24.14h-5.25c-1.89,0-3.21.22-4.04.68-.88.49-1.52,1.4-1.88,2.66l-32.82,95.22-37.23-86.51c-.52-1.1-1.04-1.89-1.58-2.41-.62-.58-1.71-.87-3.34-.87h-5.97c-1.61,0-2.73.27-3.42.83-.64.52-1.22,1.32-1.75,2.46l-37.22,86.49-32.81-95.18c-.37-1.31-1.01-2.22-1.89-2.7-.83-.45-2.15-.68-4.04-.68h-5.25c-3.14,0-3.8,1.39-3.8,2.56,0,.67.1,1.15.31,1.5l39.12,108.88c.54,1.28,1.18,2.13,1.95,2.6.75.47,1.89.7,3.47.7h4.29c1.6,0,2.7-.24,3.39-.72.65-.46,1.3-1.28,2.03-2.57l38.49-89.36,38.49,89.35c.54,1.28,1.18,2.13,1.94,2.6.75.47,1.89.7,3.47.7h4.3c1.58,0,2.72-.23,3.47-.7.77-.48,1.41-1.33,1.96-2.64l39.13-108.93c.39-1.12.32-2.07-.21-2.83-.54-.77-1.63-1.14-3.32-1.14Z"/>
          <path class="cls-1" d="M1394.59,24.99c-.99-.57-2.47-.85-4.53-.85h-99.27c-5.11,0-6.19,2.49-6.19,4.58v107.06c0,2.09,1.07,4.59,6.19,4.59h99.27c2.05,0,3.53-.28,4.53-.85.76-.44,1.66-1.36,1.66-3.22v-1.18c0-2.01-1.07-4.42-6.19-4.42h-91.17v-43.69h70.41c5.12,0,6.19-2.4,6.19-4.42v-1.18c0-1.87-.9-2.78-1.66-3.22-.99-.58-2.47-.85-4.53-.85h-70.41v-43.52h91.17c5.12,0,6.19-2.4,6.19-4.42v-1.18c0-1.87-.9-2.78-1.66-3.22Z"/>
          <path class="cls-1" d="M1500.04,90.73c11.34-1.77,20.06-5.41,25.92-10.83,6.09-5.63,9.17-13.02,9.17-21.96,0-10.67-4.44-19.07-13.2-24.98-8.67-5.85-21.49-8.82-38.09-8.82h-63.71c-5.11,0-6.19,2.49-6.19,4.58v107.06c0,2.09,1.07,4.59,6.19,4.59h1.91c5.12,0,6.19-2.49,6.19-4.59v-44.05h57.37l28.43,45.44c.87,1.35,1.65,2.21,2.41,2.61.74.4,1.94.59,3.67.59h5.73c2.37,0,3.57-.69,3.57-2.05l-.52-1.58-28.85-46.01ZM1521.32,57.94c0,8.27-2.95,14.4-8.75,18.24-5.9,3.9-15.24,5.88-27.77,5.88h-56.57v-48.25h56.57c12.52,0,21.86,1.98,27.77,5.88,5.81,3.84,8.75,9.98,8.75,18.25Z"/>
        </g>
      </g>
    </g>
    <path class="cls-1" d="M1565.69,139.04v-11.82h-4.65c-.5,0-.85-.09-1.04-.27-.2-.18-.29-.5-.29-.96v-.96c0-.5.1-.85.29-1.04s.54-.29,1.04-.29h13.1c.5,0,.86.1,1.07.29.21.2.32.54.32,1.04v.96c0,.46-.1.78-.29.96-.2.18-.56.27-1.1.27h-4.65v11.82c0,.89-.45,1.34-1.34,1.34h-1.12c-.89,0-1.34-.45-1.34-1.34ZM1576.92,139.04v-14.06c0-.86.43-1.28,1.28-1.28h1.5c.39,0,.69.05.88.13.2.09.37.29.51.61l4.81,10.21,4.76-10.21c.14-.32.31-.53.51-.61.2-.09.49-.13.88-.13h1.5c.86,0,1.28.43,1.28,1.28v14.06c0,.89-.45,1.34-1.34,1.34h-1.12c-.89,0-1.34-.45-1.34-1.34v-8.29l-3.85,8.29c-.29.57-.71.86-1.28.86-.61,0-1.05-.28-1.34-.86l-3.85-8.29v8.29c0,.89-.45,1.34-1.34,1.34h-1.12c-.89,0-1.34-.45-1.34-1.34Z"/>
  </g>
</svg>